<mxfile host="65bd71144e">
    <diagram id="w-xo5vFiMsBRrWATrdJG" name="Page-1">
        <mxGraphModel dx="1987" dy="1890" grid="1" gridSize="10" guides="1" tooltips="1" connect="1" arrows="1" fold="1" page="1" pageScale="1" pageWidth="850" pageHeight="1100" math="0" shadow="0">
            <root>
                <mxCell id="0"/>
                <mxCell id="1" parent="0"/>
                <mxCell id="40" value="&lt;span style=&quot;color: rgba(0, 0, 0, 0); font-family: monospace; font-size: 0px; text-align: start;&quot;&gt;%3CmxGraphModel%3E%3Croot%3E%3CmxCell%20id%3D%220%22%2F%3E%3CmxCell%20id%3D%221%22%20parent%3D%220%22%2F%3E%3CmxCell%20id%3D%222%22%20value%3D%22..0%22%20style%3D%22edgeLabel%3Bhtml%3D1%3Balign%3Dcenter%3BverticalAlign%3Dmiddle%3Bresizable%3D0%3Bpoints%3D%5B%5D%3BfontSize%3D17%3B%22%20vertex%3D%221%22%20connectable%3D%220%22%20parent%3D%221%22%3E%3CmxGeometry%20x%3D%22459.6026636871793%22%20y%3D%22164.84785774595161%22%20as%3D%22geometry%22%2F%3E%3C%2FmxCell%3E%3C%2Froot%3E%3C%2FmxGraphModel%3E&lt;/span&gt;" style="rounded=0;whiteSpace=wrap;html=1;fontSize=17;fillColor=#716E73;" vertex="1" parent="1">
                    <mxGeometry x="-170" y="-70" width="1050" height="790" as="geometry"/>
                </mxCell>
                <mxCell id="2" value="Fruta" style="swimlane;fontStyle=1;align=center;verticalAlign=top;childLayout=stackLayout;horizontal=1;startSize=26;horizontalStack=0;resizeParent=1;resizeParentMax=0;resizeLast=0;collapsible=1;marginBottom=0;fontSize=17;" vertex="1" parent="1">
                    <mxGeometry x="20" y="90" width="220" height="168" as="geometry"/>
                </mxCell>
                <mxCell id="6" value="+ nombre: String" style="text;strokeColor=none;fillColor=none;align=left;verticalAlign=top;spacingLeft=4;spacingRight=4;overflow=hidden;rotatable=0;points=[[0,0.5],[1,0.5]];portConstraint=eastwest;fontSize=17;" vertex="1" parent="2">
                    <mxGeometry y="26" width="220" height="26" as="geometry"/>
                </mxCell>
                <mxCell id="7" value="+ color : String" style="text;strokeColor=none;fillColor=none;align=left;verticalAlign=top;spacingLeft=4;spacingRight=4;overflow=hidden;rotatable=0;points=[[0,0.5],[1,0.5]];portConstraint=eastwest;fontSize=17;" vertex="1" parent="2">
                    <mxGeometry y="52" width="220" height="26" as="geometry"/>
                </mxCell>
                <mxCell id="12" value="+ peso: String" style="text;strokeColor=none;fillColor=none;align=left;verticalAlign=top;spacingLeft=4;spacingRight=4;overflow=hidden;rotatable=0;points=[[0,0.5],[1,0.5]];portConstraint=eastwest;fontSize=17;" vertex="1" parent="2">
                    <mxGeometry y="78" width="220" height="26" as="geometry"/>
                </mxCell>
                <mxCell id="3" value="- cantidad_pepas: Number" style="text;strokeColor=none;fillColor=none;align=left;verticalAlign=top;spacingLeft=4;spacingRight=4;overflow=hidden;rotatable=0;points=[[0,0.5],[1,0.5]];portConstraint=eastwest;fontSize=17;" vertex="1" parent="2">
                    <mxGeometry y="104" width="220" height="26" as="geometry"/>
                </mxCell>
                <mxCell id="4" value="" style="line;strokeWidth=1;fillColor=none;align=left;verticalAlign=middle;spacingTop=-1;spacingLeft=3;spacingRight=3;rotatable=0;labelPosition=right;points=[];portConstraint=eastwest;strokeColor=inherit;fontSize=17;" vertex="1" parent="2">
                    <mxGeometry y="130" width="220" height="8" as="geometry"/>
                </mxCell>
                <mxCell id="8" value="+ fechaCaducidad(): return " style="text;strokeColor=none;fillColor=none;align=left;verticalAlign=top;spacingLeft=4;spacingRight=4;overflow=hidden;rotatable=0;points=[[0,0.5],[1,0.5]];portConstraint=eastwest;fontSize=17;" vertex="1" parent="2">
                    <mxGeometry y="138" width="220" height="30" as="geometry"/>
                </mxCell>
                <mxCell id="20" style="edgeStyle=none;html=1;fontSize=17;endArrow=diamondThin;endFill=0;strokeWidth=2;endSize=21;" edge="1" parent="1" source="13">
                    <mxGeometry relative="1" as="geometry">
                        <mxPoint x="240" y="181" as="targetPoint"/>
                        <Array as="points">
                            <mxPoint x="300" y="180"/>
                            <mxPoint x="280" y="181"/>
                        </Array>
                    </mxGeometry>
                </mxCell>
                <mxCell id="21" value="Asociación" style="edgeLabel;html=1;align=center;verticalAlign=middle;resizable=0;points=[];fontSize=17;" vertex="1" connectable="0" parent="20">
                    <mxGeometry x="-0.0276" y="4" relative="1" as="geometry">
                        <mxPoint as="offset"/>
                    </mxGeometry>
                </mxCell>
                <mxCell id="43" value="..0" style="edgeLabel;html=1;align=center;verticalAlign=middle;resizable=0;points=[];fontSize=17;" vertex="1" connectable="0" parent="20">
                    <mxGeometry x="-0.5913" y="-2" relative="1" as="geometry">
                        <mxPoint x="21" y="-15" as="offset"/>
                    </mxGeometry>
                </mxCell>
                <mxCell id="13" value="Cosechador" style="swimlane;fontStyle=1;align=center;verticalAlign=top;childLayout=stackLayout;horizontal=1;startSize=26;horizontalStack=0;resizeParent=1;resizeParentMax=0;resizeLast=0;collapsible=1;marginBottom=0;fontSize=17;" vertex="1" parent="1">
                    <mxGeometry x="490" y="100" width="220" height="168" as="geometry"/>
                </mxCell>
                <mxCell id="14" value="+ nombre: String" style="text;strokeColor=none;fillColor=none;align=left;verticalAlign=top;spacingLeft=4;spacingRight=4;overflow=hidden;rotatable=0;points=[[0,0.5],[1,0.5]];portConstraint=eastwest;fontSize=17;" vertex="1" parent="13">
                    <mxGeometry y="26" width="220" height="26" as="geometry"/>
                </mxCell>
                <mxCell id="15" value="+ color : String" style="text;strokeColor=none;fillColor=none;align=left;verticalAlign=top;spacingLeft=4;spacingRight=4;overflow=hidden;rotatable=0;points=[[0,0.5],[1,0.5]];portConstraint=eastwest;fontSize=17;" vertex="1" parent="13">
                    <mxGeometry y="52" width="220" height="26" as="geometry"/>
                </mxCell>
                <mxCell id="16" value="+ peso: String" style="text;strokeColor=none;fillColor=none;align=left;verticalAlign=top;spacingLeft=4;spacingRight=4;overflow=hidden;rotatable=0;points=[[0,0.5],[1,0.5]];portConstraint=eastwest;fontSize=17;" vertex="1" parent="13">
                    <mxGeometry y="78" width="220" height="26" as="geometry"/>
                </mxCell>
                <mxCell id="17" value="+ frutas_cocechadas: Array" style="text;strokeColor=none;fillColor=none;align=left;verticalAlign=top;spacingLeft=4;spacingRight=4;overflow=hidden;rotatable=0;points=[[0,0.5],[1,0.5]];portConstraint=eastwest;fontSize=17;" vertex="1" parent="13">
                    <mxGeometry y="104" width="220" height="26" as="geometry"/>
                </mxCell>
                <mxCell id="18" value="" style="line;strokeWidth=1;fillColor=none;align=left;verticalAlign=middle;spacingTop=-1;spacingLeft=3;spacingRight=3;rotatable=0;labelPosition=right;points=[];portConstraint=eastwest;strokeColor=inherit;fontSize=17;" vertex="1" parent="13">
                    <mxGeometry y="130" width="220" height="8" as="geometry"/>
                </mxCell>
                <mxCell id="19" value="+ cocecharFrutas(): return " style="text;strokeColor=none;fillColor=none;align=left;verticalAlign=top;spacingLeft=4;spacingRight=4;overflow=hidden;rotatable=0;points=[[0,0.5],[1,0.5]];portConstraint=eastwest;fontSize=17;" vertex="1" parent="13">
                    <mxGeometry y="138" width="220" height="30" as="geometry"/>
                </mxCell>
                <mxCell id="29" style="edgeStyle=none;html=1;entryX=0.512;entryY=1.195;entryDx=0;entryDy=0;entryPerimeter=0;strokeWidth=2;fontSize=17;endArrow=diamondThin;endFill=1;endSize=21;" edge="1" parent="1" source="22" target="8">
                    <mxGeometry relative="1" as="geometry"/>
                </mxCell>
                <mxCell id="30" value="Agregación" style="edgeLabel;html=1;align=center;verticalAlign=middle;resizable=0;points=[];fontSize=17;" vertex="1" connectable="0" parent="29">
                    <mxGeometry x="-0.1755" relative="1" as="geometry">
                        <mxPoint x="-2" y="-16" as="offset"/>
                    </mxGeometry>
                </mxCell>
                <mxCell id="22" value="Arbol" style="swimlane;fontStyle=1;align=center;verticalAlign=top;childLayout=stackLayout;horizontal=1;startSize=26;horizontalStack=0;resizeParent=1;resizeParentMax=0;resizeLast=0;collapsible=1;marginBottom=0;fontSize=17;" vertex="1" parent="1">
                    <mxGeometry x="20" y="420" width="220" height="194" as="geometry"/>
                </mxCell>
                <mxCell id="23" value="+ nombre: String" style="text;strokeColor=none;fillColor=none;align=left;verticalAlign=top;spacingLeft=4;spacingRight=4;overflow=hidden;rotatable=0;points=[[0,0.5],[1,0.5]];portConstraint=eastwest;fontSize=17;" vertex="1" parent="22">
                    <mxGeometry y="26" width="220" height="26" as="geometry"/>
                </mxCell>
                <mxCell id="24" value="+ tipo : String" style="text;strokeColor=none;fillColor=none;align=left;verticalAlign=top;spacingLeft=4;spacingRight=4;overflow=hidden;rotatable=0;points=[[0,0.5],[1,0.5]];portConstraint=eastwest;fontSize=17;" vertex="1" parent="22">
                    <mxGeometry y="52" width="220" height="26" as="geometry"/>
                </mxCell>
                <mxCell id="25" value="+ altura: String" style="text;strokeColor=none;fillColor=none;align=left;verticalAlign=top;spacingLeft=4;spacingRight=4;overflow=hidden;rotatable=0;points=[[0,0.5],[1,0.5]];portConstraint=eastwest;fontSize=17;" vertex="1" parent="22">
                    <mxGeometry y="78" width="220" height="26" as="geometry"/>
                </mxCell>
                <mxCell id="26" value="+ frutas: Array" style="text;strokeColor=none;fillColor=none;align=left;verticalAlign=top;spacingLeft=4;spacingRight=4;overflow=hidden;rotatable=0;points=[[0,0.5],[1,0.5]];portConstraint=eastwest;fontSize=17;" vertex="1" parent="22">
                    <mxGeometry y="104" width="220" height="26" as="geometry"/>
                </mxCell>
                <mxCell id="41" value="+ raiz: Array" style="text;strokeColor=none;fillColor=none;align=left;verticalAlign=top;spacingLeft=4;spacingRight=4;overflow=hidden;rotatable=0;points=[[0,0.5],[1,0.5]];portConstraint=eastwest;fontSize=17;" vertex="1" parent="22">
                    <mxGeometry y="130" width="220" height="26" as="geometry"/>
                </mxCell>
                <mxCell id="27" value="" style="line;strokeWidth=1;fillColor=none;align=left;verticalAlign=middle;spacingTop=-1;spacingLeft=3;spacingRight=3;rotatable=0;labelPosition=right;points=[];portConstraint=eastwest;strokeColor=inherit;fontSize=17;" vertex="1" parent="22">
                    <mxGeometry y="156" width="220" height="8" as="geometry"/>
                </mxCell>
                <mxCell id="28" value="+ fechaCaducidad(): return " style="text;strokeColor=none;fillColor=none;align=left;verticalAlign=top;spacingLeft=4;spacingRight=4;overflow=hidden;rotatable=0;points=[[0,0.5],[1,0.5]];portConstraint=eastwest;fontSize=17;" vertex="1" parent="22">
                    <mxGeometry y="164" width="220" height="30" as="geometry"/>
                </mxCell>
                <mxCell id="31" value="Raiz" style="swimlane;fontStyle=1;align=center;verticalAlign=top;childLayout=stackLayout;horizontal=1;startSize=26;horizontalStack=0;resizeParent=1;resizeParentMax=0;resizeLast=0;collapsible=1;marginBottom=0;fontSize=17;" vertex="1" parent="1">
                    <mxGeometry x="490" y="440" width="230" height="116" as="geometry"/>
                </mxCell>
                <mxCell id="32" value="+ largo: String" style="text;strokeColor=none;fillColor=none;align=left;verticalAlign=top;spacingLeft=4;spacingRight=4;overflow=hidden;rotatable=0;points=[[0,0.5],[1,0.5]];portConstraint=eastwest;fontSize=17;" vertex="1" parent="31">
                    <mxGeometry y="26" width="230" height="26" as="geometry"/>
                </mxCell>
                <mxCell id="33" value="+ grosor: String" style="text;strokeColor=none;fillColor=none;align=left;verticalAlign=top;spacingLeft=4;spacingRight=4;overflow=hidden;rotatable=0;points=[[0,0.5],[1,0.5]];portConstraint=eastwest;fontSize=17;" vertex="1" parent="31">
                    <mxGeometry y="52" width="230" height="26" as="geometry"/>
                </mxCell>
                <mxCell id="36" value="" style="line;strokeWidth=1;fillColor=none;align=left;verticalAlign=middle;spacingTop=-1;spacingLeft=3;spacingRight=3;rotatable=0;labelPosition=right;points=[];portConstraint=eastwest;strokeColor=inherit;fontSize=17;" vertex="1" parent="31">
                    <mxGeometry y="78" width="230" height="8" as="geometry"/>
                </mxCell>
                <mxCell id="37" value="+ absorverAgua(): void " style="text;strokeColor=none;fillColor=none;align=left;verticalAlign=top;spacingLeft=4;spacingRight=4;overflow=hidden;rotatable=0;points=[[0,0.5],[1,0.5]];portConstraint=eastwest;fontSize=17;" vertex="1" parent="31">
                    <mxGeometry y="86" width="230" height="30" as="geometry"/>
                </mxCell>
                <mxCell id="38" style="edgeStyle=none;html=1;exitX=0;exitY=0.5;exitDx=0;exitDy=0;strokeWidth=2;fontSize=17;endArrow=diamondThin;endFill=1;endSize=21;strokeColor=#000000;entryX=1;entryY=0.5;entryDx=0;entryDy=0;" edge="1" parent="1" source="33" target="25">
                    <mxGeometry relative="1" as="geometry">
                        <mxPoint x="470" y="360" as="targetPoint"/>
                        <Array as="points"/>
                    </mxGeometry>
                </mxCell>
                <mxCell id="42" value="Composición" style="edgeLabel;html=1;align=center;verticalAlign=middle;resizable=0;points=[];fontSize=17;" vertex="1" connectable="0" parent="38">
                    <mxGeometry x="-0.1971" y="-2" relative="1" as="geometry">
                        <mxPoint x="-20" as="offset"/>
                    </mxGeometry>
                </mxCell>
                <mxCell id="45" value="*" style="edgeLabel;html=1;align=center;verticalAlign=middle;resizable=0;points=[];fontSize=17;" vertex="1" connectable="0" parent="1">
                    <mxGeometry x="300.00171919862896" y="139.99876565601951" as="geometry">
                        <mxPoint x="-27" y="23" as="offset"/>
                    </mxGeometry>
                </mxCell>
                <mxCell id="47" value="..0" style="edgeLabel;html=1;align=center;verticalAlign=middle;resizable=0;points=[];fontSize=17;" vertex="1" connectable="0" parent="1">
                    <mxGeometry x="469.6026636871793" y="174.84785774595161" as="geometry">
                        <mxPoint x="-378" y="97" as="offset"/>
                    </mxGeometry>
                </mxCell>
                <mxCell id="48" value="..1" style="edgeLabel;html=1;align=center;verticalAlign=middle;resizable=0;points=[];fontSize=17;" vertex="1" connectable="0" parent="1">
                    <mxGeometry x="160.00266368717928" y="369.9978577459516" as="geometry">
                        <mxPoint x="-56" y="34" as="offset"/>
                    </mxGeometry>
                </mxCell>
                <mxCell id="49" value="..1" style="edgeLabel;html=1;align=center;verticalAlign=middle;resizable=0;points=[];fontSize=17;" vertex="1" connectable="0" parent="1">
                    <mxGeometry x="310.0026636871793" y="409.9978577459516" as="geometry">
                        <mxPoint x="-47" y="79" as="offset"/>
                    </mxGeometry>
                </mxCell>
                <mxCell id="50" value="..n" style="edgeLabel;html=1;align=center;verticalAlign=middle;resizable=0;points=[];fontSize=17;" vertex="1" connectable="0" parent="1">
                    <mxGeometry x="490.0026636871793" y="289.9978577459516" as="geometry">
                        <mxPoint x="-18" y="196" as="offset"/>
                    </mxGeometry>
                </mxCell>
                <mxCell id="51" value="&lt;span style=&quot;color: rgba(0, 0, 0, 0); font-family: monospace; font-size: 0px; text-align: start;&quot;&gt;%3CmxGraphModel%3E%3Croot%3E%3CmxCell%20id%3D%220%22%2F%3E%3CmxCell%20id%3D%221%22%20parent%3D%220%22%2F%3E%3CmxCell%20id%3D%222%22%20value%3D%22..0%22%20style%3D%22edgeLabel%3Bhtml%3D1%3Balign%3Dcenter%3BverticalAlign%3Dmiddle%3Bresizable%3D0%3Bpoints%3D%5B%5D%3BfontSize%3D17%3B%22%20vertex%3D%221%22%20connectable%3D%220%22%20parent%3D%221%22%3E%3CmxGeometry%20x%3D%22459.6026636871793%22%20y%3D%22164.84785774595161%22%20as%3D%22geometry%22%2F%3E%3C%2FmxCell%3E%3C%2Froot%3E%3C%2FmxGraphModel%3E&lt;/span&gt;" style="rounded=0;whiteSpace=wrap;html=1;fontSize=17;fillColor=#716E73;" vertex="1" parent="1">
                    <mxGeometry x="-170" y="-890" width="1050" height="790" as="geometry"/>
                </mxCell>
                <mxCell id="52" value="Automovil" style="swimlane;fontStyle=1;align=center;verticalAlign=top;childLayout=stackLayout;horizontal=1;startSize=26;horizontalStack=0;resizeParent=1;resizeParentMax=0;resizeLast=0;collapsible=1;marginBottom=0;fontSize=17;fillColor=#716E73;" vertex="1" parent="1">
                    <mxGeometry x="-130" y="-782" width="310" height="216" as="geometry"/>
                </mxCell>
                <mxCell id="64" value="+ ruedas: Array" style="text;strokeColor=none;fillColor=none;align=left;verticalAlign=top;spacingLeft=4;spacingRight=4;overflow=hidden;rotatable=0;points=[[0,0.5],[1,0.5]];portConstraint=eastwest;fontSize=17;" vertex="1" parent="52">
                    <mxGeometry y="26" width="310" height="26" as="geometry"/>
                </mxCell>
                <mxCell id="66" value="+ puertas: Array" style="text;strokeColor=none;fillColor=none;align=left;verticalAlign=top;spacingLeft=4;spacingRight=4;overflow=hidden;rotatable=0;points=[[0,0.5],[1,0.5]];portConstraint=eastwest;fontSize=17;" vertex="1" parent="52">
                    <mxGeometry y="52" width="310" height="26" as="geometry"/>
                </mxCell>
                <mxCell id="86" value="+ velocidad: Number" style="text;strokeColor=none;fillColor=none;align=left;verticalAlign=top;spacingLeft=4;spacingRight=4;overflow=hidden;rotatable=0;points=[[0,0.5],[1,0.5]];portConstraint=eastwest;fontSize=17;" vertex="1" parent="52">
                    <mxGeometry y="78" width="310" height="26" as="geometry"/>
                </mxCell>
                <mxCell id="53" value="+ motor: Objeto " style="text;strokeColor=none;fillColor=none;align=left;verticalAlign=top;spacingLeft=4;spacingRight=4;overflow=hidden;rotatable=0;points=[[0,0.5],[1,0.5]];portConstraint=eastwest;fontSize=17;" vertex="1" parent="52">
                    <mxGeometry y="104" width="310" height="26" as="geometry"/>
                </mxCell>
                <mxCell id="54" value="" style="line;strokeWidth=1;fillColor=none;align=left;verticalAlign=middle;spacingTop=-1;spacingLeft=3;spacingRight=3;rotatable=0;labelPosition=right;points=[];portConstraint=eastwest;strokeColor=inherit;fontSize=17;" vertex="1" parent="52">
                    <mxGeometry y="130" width="310" height="8" as="geometry"/>
                </mxCell>
                <mxCell id="65" value="+ acelerar(): void" style="text;strokeColor=none;fillColor=none;align=left;verticalAlign=top;spacingLeft=4;spacingRight=4;overflow=hidden;rotatable=0;points=[[0,0.5],[1,0.5]];portConstraint=eastwest;fontSize=17;" vertex="1" parent="52">
                    <mxGeometry y="138" width="310" height="26" as="geometry"/>
                </mxCell>
                <mxCell id="72" value="+ frenar(): void" style="text;strokeColor=none;fillColor=none;align=left;verticalAlign=top;spacingLeft=4;spacingRight=4;overflow=hidden;rotatable=0;points=[[0,0.5],[1,0.5]];portConstraint=eastwest;fontSize=17;" vertex="1" parent="52">
                    <mxGeometry y="164" width="310" height="26" as="geometry"/>
                </mxCell>
                <mxCell id="55" value="+ obtenerCantidadDePuertas(): return" style="text;strokeColor=none;fillColor=none;align=left;verticalAlign=top;spacingLeft=4;spacingRight=4;overflow=hidden;rotatable=0;points=[[0,0.5],[1,0.5]];portConstraint=eastwest;fontSize=17;" vertex="1" parent="52">
                    <mxGeometry y="190" width="310" height="26" as="geometry"/>
                </mxCell>
                <mxCell id="87" style="edgeStyle=none;html=1;strokeColor=#000000;strokeWidth=2;fontSize=17;endArrow=diamondThin;endFill=1;endSize=21;entryX=0.5;entryY=0;entryDx=0;entryDy=0;exitX=0.46;exitY=1.109;exitDx=0;exitDy=0;exitPerimeter=0;" edge="1" parent="1" source="55" target="56">
                    <mxGeometry relative="1" as="geometry">
                        <Array as="points"/>
                    </mxGeometry>
                </mxCell>
                <mxCell id="88" value="Composicion" style="edgeLabel;html=1;align=center;verticalAlign=middle;resizable=0;points=[];fontSize=17;" vertex="1" connectable="0" parent="87">
                    <mxGeometry x="-0.2513" y="2" relative="1" as="geometry">
                        <mxPoint x="-4" y="13" as="offset"/>
                    </mxGeometry>
                </mxCell>
                <mxCell id="56" value="Motor" style="swimlane;fontStyle=1;align=center;verticalAlign=top;childLayout=stackLayout;horizontal=1;startSize=26;horizontalStack=0;resizeParent=1;resizeParentMax=0;resizeLast=0;collapsible=1;marginBottom=0;fontSize=17;fillColor=#716E73;" vertex="1" parent="1">
                    <mxGeometry x="-120" y="-430" width="260" height="190" as="geometry"/>
                </mxCell>
                <mxCell id="57" value="+ nombre: String" style="text;strokeColor=none;fillColor=none;align=left;verticalAlign=top;spacingLeft=4;spacingRight=4;overflow=hidden;rotatable=0;points=[[0,0.5],[1,0.5]];portConstraint=eastwest;fontSize=17;" vertex="1" parent="56">
                    <mxGeometry y="26" width="260" height="26" as="geometry"/>
                </mxCell>
                <mxCell id="77" value="+ tipo: String" style="text;strokeColor=none;fillColor=none;align=left;verticalAlign=top;spacingLeft=4;spacingRight=4;overflow=hidden;rotatable=0;points=[[0,0.5],[1,0.5]];portConstraint=eastwest;fontSize=17;" vertex="1" parent="56">
                    <mxGeometry y="52" width="260" height="26" as="geometry"/>
                </mxCell>
                <mxCell id="78" value="+ rendimiento: String" style="text;strokeColor=none;fillColor=none;align=left;verticalAlign=top;spacingLeft=4;spacingRight=4;overflow=hidden;rotatable=0;points=[[0,0.5],[1,0.5]];portConstraint=eastwest;fontSize=17;" vertex="1" parent="56">
                    <mxGeometry y="78" width="260" height="26" as="geometry"/>
                </mxCell>
                <mxCell id="79" value="+ combustible: String" style="text;strokeColor=none;fillColor=none;align=left;verticalAlign=top;spacingLeft=4;spacingRight=4;overflow=hidden;rotatable=0;points=[[0,0.5],[1,0.5]];portConstraint=eastwest;fontSize=17;" vertex="1" parent="56">
                    <mxGeometry y="104" width="260" height="26" as="geometry"/>
                </mxCell>
                <mxCell id="58" value="" style="line;strokeWidth=1;fillColor=none;align=left;verticalAlign=middle;spacingTop=-1;spacingLeft=3;spacingRight=3;rotatable=0;labelPosition=right;points=[];portConstraint=eastwest;strokeColor=inherit;fontSize=17;" vertex="1" parent="56">
                    <mxGeometry y="130" width="260" height="8" as="geometry"/>
                </mxCell>
                <mxCell id="59" value="+ encerMotor(): return" style="text;strokeColor=none;fillColor=none;align=left;verticalAlign=top;spacingLeft=4;spacingRight=4;overflow=hidden;rotatable=0;points=[[0,0.5],[1,0.5]];portConstraint=eastwest;fontSize=17;" vertex="1" parent="56">
                    <mxGeometry y="138" width="260" height="26" as="geometry"/>
                </mxCell>
                <mxCell id="80" value="+ accelerarMotor(): return" style="text;strokeColor=none;fillColor=none;align=left;verticalAlign=top;spacingLeft=4;spacingRight=4;overflow=hidden;rotatable=0;points=[[0,0.5],[1,0.5]];portConstraint=eastwest;fontSize=17;" vertex="1" parent="56">
                    <mxGeometry y="164" width="260" height="26" as="geometry"/>
                </mxCell>
                <mxCell id="91" style="edgeStyle=none;html=1;strokeColor=#000000;strokeWidth=2;fontSize=17;endArrow=diamondThin;endFill=1;endSize=21;exitX=1;exitY=0.5;exitDx=0;exitDy=0;entryX=0;entryY=0.5;entryDx=0;entryDy=0;" edge="1" parent="1" source="86" target="83">
                    <mxGeometry relative="1" as="geometry"/>
                </mxCell>
                <mxCell id="92" value="Composición" style="edgeLabel;html=1;align=center;verticalAlign=middle;resizable=0;points=[];fontSize=17;" vertex="1" connectable="0" parent="91">
                    <mxGeometry x="-0.208" y="3" relative="1" as="geometry">
                        <mxPoint x="10" y="3" as="offset"/>
                    </mxGeometry>
                </mxCell>
                <mxCell id="60" value="Rueda" style="swimlane;fontStyle=1;align=center;verticalAlign=top;childLayout=stackLayout;horizontal=1;startSize=26;horizontalStack=0;resizeParent=1;resizeParentMax=0;resizeLast=0;collapsible=1;marginBottom=0;fontSize=17;fillColor=#716E73;" vertex="1" parent="1">
                    <mxGeometry x="380" y="-782" width="260" height="164" as="geometry"/>
                </mxCell>
                <mxCell id="61" value="+ material: String" style="text;strokeColor=none;fillColor=none;align=left;verticalAlign=top;spacingLeft=4;spacingRight=4;overflow=hidden;rotatable=0;points=[[0,0.5],[1,0.5]];portConstraint=eastwest;fontSize=17;" vertex="1" parent="60">
                    <mxGeometry y="26" width="260" height="26" as="geometry"/>
                </mxCell>
                <mxCell id="82" value="+ marca: String" style="text;strokeColor=none;fillColor=none;align=left;verticalAlign=top;spacingLeft=4;spacingRight=4;overflow=hidden;rotatable=0;points=[[0,0.5],[1,0.5]];portConstraint=eastwest;fontSize=17;" vertex="1" parent="60">
                    <mxGeometry y="52" width="260" height="26" as="geometry"/>
                </mxCell>
                <mxCell id="83" value="+ tipo_rueda: String" style="text;strokeColor=none;fillColor=none;align=left;verticalAlign=top;spacingLeft=4;spacingRight=4;overflow=hidden;rotatable=0;points=[[0,0.5],[1,0.5]];portConstraint=eastwest;fontSize=17;" vertex="1" parent="60">
                    <mxGeometry y="78" width="260" height="26" as="geometry"/>
                </mxCell>
                <mxCell id="84" value="+ aro: String" style="text;strokeColor=none;fillColor=none;align=left;verticalAlign=top;spacingLeft=4;spacingRight=4;overflow=hidden;rotatable=0;points=[[0,0.5],[1,0.5]];portConstraint=eastwest;fontSize=17;" vertex="1" parent="60">
                    <mxGeometry y="104" width="260" height="26" as="geometry"/>
                </mxCell>
                <mxCell id="62" value="" style="line;strokeWidth=1;fillColor=none;align=left;verticalAlign=middle;spacingTop=-1;spacingLeft=3;spacingRight=3;rotatable=0;labelPosition=right;points=[];portConstraint=eastwest;strokeColor=inherit;fontSize=17;" vertex="1" parent="60">
                    <mxGeometry y="130" width="260" height="8" as="geometry"/>
                </mxCell>
                <mxCell id="63" value="+ girarRueda(aceleracion): void" style="text;strokeColor=none;fillColor=none;align=left;verticalAlign=top;spacingLeft=4;spacingRight=4;overflow=hidden;rotatable=0;points=[[0,0.5],[1,0.5]];portConstraint=eastwest;fontSize=17;" vertex="1" parent="60">
                    <mxGeometry y="138" width="260" height="26" as="geometry"/>
                </mxCell>
                <mxCell id="67" value="Puerta" style="swimlane;fontStyle=1;align=center;verticalAlign=top;childLayout=stackLayout;horizontal=1;startSize=26;horizontalStack=0;resizeParent=1;resizeParentMax=0;resizeLast=0;collapsible=1;marginBottom=0;fontSize=17;fillColor=#716E73;" vertex="1" parent="1">
                    <mxGeometry x="330" y="-420" width="250" height="112" as="geometry"/>
                </mxCell>
                <mxCell id="71" value="+ color: String" style="text;strokeColor=none;fillColor=none;align=left;verticalAlign=top;spacingLeft=4;spacingRight=4;overflow=hidden;rotatable=0;points=[[0,0.5],[1,0.5]];portConstraint=eastwest;fontSize=17;" vertex="1" parent="67">
                    <mxGeometry y="26" width="250" height="26" as="geometry"/>
                </mxCell>
                <mxCell id="68" value="+ ventanas: Array" style="text;strokeColor=none;fillColor=none;align=left;verticalAlign=top;spacingLeft=4;spacingRight=4;overflow=hidden;rotatable=0;points=[[0,0.5],[1,0.5]];portConstraint=eastwest;fontSize=17;" vertex="1" parent="67">
                    <mxGeometry y="52" width="250" height="26" as="geometry"/>
                </mxCell>
                <mxCell id="69" value="" style="line;strokeWidth=1;fillColor=none;align=left;verticalAlign=middle;spacingTop=-1;spacingLeft=3;spacingRight=3;rotatable=0;labelPosition=right;points=[];portConstraint=eastwest;strokeColor=inherit;fontSize=17;" vertex="1" parent="67">
                    <mxGeometry y="78" width="250" height="8" as="geometry"/>
                </mxCell>
                <mxCell id="70" value="+ method(type): type" style="text;strokeColor=none;fillColor=none;align=left;verticalAlign=top;spacingLeft=4;spacingRight=4;overflow=hidden;rotatable=0;points=[[0,0.5],[1,0.5]];portConstraint=eastwest;fontSize=17;" vertex="1" parent="67">
                    <mxGeometry y="86" width="250" height="26" as="geometry"/>
                </mxCell>
                <mxCell id="90" value="1" style="text;html=1;strokeColor=none;fillColor=none;align=center;verticalAlign=middle;whiteSpace=wrap;rounded=0;fontSize=17;" vertex="1" parent="1">
                    <mxGeometry x="-50" y="-470" width="60" height="30" as="geometry"/>
                </mxCell>
                <mxCell id="93" value="&lt;span style=&quot;color: rgb(51, 51, 51); font-family: &amp;quot;Helvetica Neue&amp;quot;, Helvetica, &amp;quot;Segoe UI&amp;quot;, Arial, freesans, sans-serif; font-size: 16px; text-align: left; background-color: rgb(255, 255, 255);&quot;&gt;n..m&lt;/span&gt;" style="text;html=1;strokeColor=none;fillColor=none;align=center;verticalAlign=middle;whiteSpace=wrap;rounded=0;fontSize=17;" vertex="1" parent="1">
                    <mxGeometry x="320" y="-740" width="60" height="30" as="geometry"/>
                </mxCell>
                <mxCell id="95" value="1" style="text;html=1;strokeColor=none;fillColor=none;align=center;verticalAlign=middle;whiteSpace=wrap;rounded=0;fontSize=17;" vertex="1" parent="1">
                    <mxGeometry x="180" y="-740" width="60" height="30" as="geometry"/>
                </mxCell>
                <mxCell id="96" value="1" style="text;html=1;strokeColor=none;fillColor=none;align=center;verticalAlign=middle;whiteSpace=wrap;rounded=0;fontSize=17;" vertex="1" parent="1">
                    <mxGeometry x="-50" y="-565" width="60" height="30" as="geometry"/>
                </mxCell>
            </root>
        </mxGraphModel>
    </diagram>
</mxfile>